<?xml version="1.0" encoding="UTF-8" standalone="no"?>
<!-- Created with Inkscape (http://www.inkscape.org/) -->

<svg
   width="64"
   height="64"
   viewBox="0 0 16.933333 16.933333"
   version="1.1"
   id="svg5"
   inkscape:version="1.2.2 (b0a8486541, 2022-12-01)"
   sodipodi:docname="gear.svg"
   inkscape:export-filename="gear.png"
   inkscape:export-xdpi="96"
   inkscape:export-ydpi="96"
   xmlns:inkscape="http://www.inkscape.org/namespaces/inkscape"
   xmlns:sodipodi="http://sodipodi.sourceforge.net/DTD/sodipodi-0.dtd"
   xmlns="http://www.w3.org/2000/svg"
   xmlns:svg="http://www.w3.org/2000/svg">
  <sodipodi:namedview
     id="namedview7"
     pagecolor="#000000"
     bordercolor="#eeeeee"
     borderopacity="1"
     inkscape:showpageshadow="0"
     inkscape:pageopacity="0"
     inkscape:pagecheckerboard="true"
     inkscape:deskcolor="#505050"
     inkscape:document-units="mm"
     showgrid="false"
     inkscape:zoom="15.487642"
     inkscape:cx="27.925491"
     inkscape:cy="32.800345"
     inkscape:window-width="1876"
     inkscape:window-height="1014"
     inkscape:window-x="44"
     inkscape:window-y="797"
     inkscape:window-maximized="1"
     inkscape:current-layer="layer1"
     borderlayer="false" />
  <defs
     id="defs2" />
  <g
     inkscape:label="Calque 1"
     inkscape:groupmode="layer"
     id="layer1">
    <path
       id="rect2786"
       style="fill:#ffffff;stroke-width:0.282004;stroke-linecap:round"
       d="m 7.9932108,5.1872102 h 0.9469113 l 0.252927,1.2562594 H 7.7402837 Z"
       sodipodi:nodetypes="ccccc" />
    <path
       id="path1686"
       style="fill:#ffffff;fill-opacity:1;stroke:none;stroke-width:0.282004;stroke-linecap:round;stroke-opacity:1"
       d="M 8.4666667,5.8155574 A 2.6931997,2.6513263 0 0 0 5.7734375,8.4666668 2.6931997,2.6513263 0 0 0 8.4666667,11.117776 2.6931997,2.6513263 0 0 0 11.159896,8.4666668 2.6931997,2.6513263 0 0 0 8.4666667,5.8155574 Z m 0,1.0676468 A 1.6087333,1.583721 0 0 1 10.075157,8.4666668 1.6087333,1.583721 0 0 1 8.4666667,10.050129 1.6087333,1.583721 0 0 1 6.8581764,8.4666668 1.6087333,1.583721 0 0 1 8.4666667,6.8832042 Z" />
    <path
       id="path3107"
       style="fill:#ffffff;stroke-width:0.282004;stroke-linecap:round"
       d="M 5.7825157,6.4886298 6.4468168,5.8138373 7.5194983,6.5149181 6.5003175,7.5501949 Z"
       sodipodi:nodetypes="ccccc" />
    <path
       id="path3109"
       style="fill:#ffffff;stroke-width:0.282004;stroke-linecap:round"
       d="M 5.1453368,8.9401211 V 7.99321 L 6.4015967,7.7402831 v 1.4527654 z"
       sodipodi:nodetypes="ccccc" />
    <path
       id="path3111"
       style="fill:#ffffff;stroke-width:0.282004;stroke-linecap:round"
       d="M 6.4468159,11.119495 5.7825149,10.444703 6.5003174,9.3831368 7.5194982,10.418414 Z"
       sodipodi:nodetypes="ccccc" />
    <path
       id="path3113"
       style="fill:#ffffff;stroke-width:0.282004;stroke-linecap:round"
       d="M 10.486517,5.8138382 11.150818,6.4886308 10.433015,7.5501959 9.4138351,6.5149191 Z"
       sodipodi:nodetypes="ccccc" />
    <path
       id="path3115"
       style="fill:#ffffff;stroke-width:0.282004;stroke-linecap:round"
       d="M 11.150818,10.444703 10.486517,11.119495 9.4138347,10.418414 10.433015,9.3831373 Z"
       sodipodi:nodetypes="ccccc" />
    <path
       id="path3117"
       style="fill:#ffffff;stroke-width:0.282004;stroke-linecap:round"
       d="M 11.787997,7.9932107 V 8.940122 l -1.25626,0.2529269 V 7.7402833 Z"
       sodipodi:nodetypes="ccccc" />
    <path
       id="path3119"
       style="fill:#ffffff;stroke-width:0.282004;stroke-linecap:round"
       d="M 8.9401219,11.746122 H 7.9932106 L 7.7402837,10.489863 h 1.4527654 z"
       sodipodi:nodetypes="ccccc" />
  </g>
</svg>
