# Blender v3.2.2 OBJ File: 'wagon.blend'
# www.blender.org
mtllib wagon.mtl
o wagon_wagonMesh
v 0.296782 0.430928 -0.413401
v 0.221309 0.154004 -0.307100
v 0.296782 0.430928 0.413401
v 0.221309 0.154004 0.307100
v -0.297249 0.430928 -0.413401
v -0.221776 0.154004 -0.307100
v -0.297249 0.430928 0.413401
v -0.221776 0.154004 0.307100
v 0.250493 0.528649 -0.367113
v 0.250493 0.528649 0.367113
v -0.250960 0.528649 -0.367113
v -0.250960 0.528649 0.367113
v 0.296782 0.528649 0.413401
v -0.297249 0.528649 0.413401
v 0.296782 0.528649 -0.413401
v -0.297249 0.528649 -0.413401
v 0.250493 0.430726 -0.367113
v 0.250493 0.430726 0.367113
v -0.250960 0.430726 -0.367113
v -0.250960 0.430726 0.367113
v 0.179690 0.195659 -0.275714
v 0.179690 0.195659 0.275714
v -0.180157 0.195659 -0.275714
v -0.180157 0.195659 0.275714
vt 0.965629 0.348099
vt 0.547430 0.348099
vt 0.547430 0.281256
vt 0.965629 0.281256
vt 0.600563 0.556924
vt 0.547430 0.348099
vt 0.965629 0.348099
vt 0.912496 0.556923
vt 0.000221 0.075057
vt 0.202286 0.000221
vt 0.203026 0.583919
vt 0.000407 0.508878
vt 0.000221 0.894664
vt 0.000221 0.582732
vt 0.432618 0.582732
vt 0.432618 0.894664
vt 0.000221 0.075057
vt 0.202286 0.000221
vt 0.203026 0.582455
vt 0.000407 0.507414
vt 0.600563 0.556924
vt 0.912496 0.556923
vt 0.303669 0.549703
vt 0.303669 0.032808
vt 0.372608 0.032808
vt 0.373813 0.549778
vt 0.547430 0.281256
vt 0.965629 0.281256
vt 0.268152 0.000221
vt 0.268153 0.583755
vt 0.268152 0.000221
vt 0.268153 0.582290
vt 0.580017 0.246715
vt 0.933041 0.246716
vt 0.303669 0.032808
vt 0.303669 0.549703
vt 0.268153 0.582290
vt 0.580017 0.246715
vt 0.933041 0.246716
vt 0.933041 0.177777
vt 0.580017 0.177777
vt 0.629863 0.000221
vt 0.883196 0.000221
vt 0.580017 0.177777
vt 0.933041 0.177777
vt 0.372608 0.032808
vt 0.373813 0.549778
vt 0.433059 0.836065
vt 0.433059 0.585808
vt 0.821266 0.585808
vt 0.821266 0.836065
vt 0.545439 0.097152
vt 0.545439 0.485359
vt 0.545439 0.097152
vt 0.545439 0.485359
vt 0.629863 0.000221
vt 0.883196 0.000221
vn 0.0000 0.0000 -1.0000
vn 0.0000 -0.3584 0.9336
vn -0.9648 -0.2629 0.0000
vn 0.0000 -1.0000 0.0000
vn 0.9648 -0.2629 0.0000
vn 0.0000 -0.3584 -0.9336
vn 1.0000 0.0000 0.0000
vn 0.0000 0.0000 1.0000
vn -1.0000 0.0000 0.0000
vn 0.0000 1.0000 0.0000
vn 0.0000 0.3624 0.9320
vn -0.9575 0.2884 0.0000
vn 0.9575 0.2884 0.0000
vn 0.0000 0.3624 -0.9320
usemtl wagon
s off
f 1/1/1 5/2/1 16/3/1 15/4/1
f 4/5/2 3/6/2 7/7/2 8/8/2
f 8/9/3 7/10/3 5/11/3 6/12/3
f 6/13/4 2/14/4 4/15/4 8/16/4
f 2/17/5 1/18/5 3/19/5 4/20/5
f 6/21/6 5/2/6 1/1/6 2/22/6
f 11/23/7 12/24/7 20/25/7 19/26/7
f 7/7/8 3/6/8 13/27/8 14/28/8
f 5/11/9 7/10/9 14/29/9 16/30/9
f 3/19/7 1/18/7 15/31/7 13/32/7
f 10/33/10 12/34/10 14/28/10 13/27/10
f 9/35/10 10/36/10 13/32/10 15/31/10
f 12/24/10 11/23/10 16/37/10 14/29/10
f 11/38/10 9/39/10 15/4/10 16/3/10
f 17/40/11 19/41/11 23/42/11 21/43/11
f 12/34/1 10/33/1 18/44/1 20/45/1
f 9/39/8 11/38/8 19/41/8 17/40/8
f 10/36/9 9/35/9 17/46/9 18/47/9
f 21/48/10 23/49/10 24/50/10 22/51/10
f 18/47/12 17/46/12 21/52/12 22/53/12
f 19/26/13 20/25/13 24/54/13 23/55/13
f 20/45/14 18/44/14 22/56/14 24/57/14
o wheelBR_wheelMeshBR
v 0.272463 0.273912 0.233420
v 0.302819 0.237742 0.275864
v 0.272463 0.263359 0.180365
v 0.302819 0.213699 0.311847
v 0.272463 0.233306 0.135387
v 0.302819 0.177717 0.335889
v 0.272463 0.188328 0.105333
v 0.302819 0.135272 0.344332
v 0.272463 0.135272 0.094780
v 0.302819 0.092828 0.335889
v 0.272463 0.082217 0.105333
v 0.302819 0.056846 0.311847
v 0.272463 0.037239 0.135387
v 0.302819 0.032803 0.275864
v 0.272463 0.007186 0.180365
v 0.302819 0.024360 0.233420
v 0.272463 -0.003368 0.233420
v 0.302819 0.032803 0.190976
v 0.272463 0.007186 0.286475
v 0.302819 0.056846 0.154993
v 0.272463 0.037239 0.331453
v 0.302819 0.092828 0.130951
v 0.272463 0.082217 0.361507
v 0.302819 0.135272 0.122508
v 0.272463 0.135272 0.372060
v 0.302819 0.177717 0.130951
v 0.272463 0.188328 0.361507
v 0.302819 0.213699 0.154993
v 0.272463 0.233306 0.331453
v 0.302819 0.237742 0.190976
v 0.272463 0.263359 0.286475
v 0.302819 0.246184 0.233420
v 0.302819 0.135272 0.233420
v 0.272463 0.135272 0.233420
vt 0.923219 0.751642
vt 0.889825 0.751642
vt 0.906522 0.667701
vt 0.954071 0.738863
vt 0.977685 0.715250
vt 0.990464 0.684398
vt 0.990464 0.651004
vt 0.977685 0.620152
vt 0.954072 0.596538
vt 0.923220 0.583759
vt 0.889825 0.583759
vt 0.858973 0.596538
vt 0.835360 0.620151
vt 0.822581 0.651004
vt 0.822581 0.684398
vt 0.835360 0.715250
vt 0.858973 0.738863
vt 0.977311 0.804217
vt 0.907585 0.850806
vt 0.954174 0.781080
vt 0.923945 0.768559
vt 0.891225 0.768559
vt 0.860996 0.781080
vt 0.837860 0.804217
vt 0.825338 0.834446
vt 0.825338 0.867166
vt 0.837860 0.897395
vt 0.860996 0.920532
vt 0.891225 0.933053
vt 0.923945 0.933053
vt 0.954174 0.920532
vt 0.977311 0.897395
vt 0.989832 0.867166
vt 0.989832 0.834446
vt 0.726546 0.961417
vt 0.726546 0.981298
vt 0.699896 0.981298
vt 0.699896 0.961417
vt 0.673247 0.961417
vt 0.673247 0.981298
vt 0.646598 0.981298
vt 0.646598 0.961417
vt 0.619949 0.981298
vt 0.619949 0.961417
vt 0.593300 0.981298
vt 0.593300 0.961417
vt 0.566651 0.981298
vt 0.566651 0.961417
vt 0.540002 0.961417
vt 0.540002 0.981298
vt 0.513353 0.981298
vt 0.513353 0.961417
vt 0.913089 0.961417
vt 0.939738 0.961417
vt 0.939738 0.981298
vt 0.913089 0.981298
vt 0.886440 0.981298
vt 0.886440 0.961417
vt 0.859791 0.981298
vt 0.859791 0.961417
vt 0.833142 0.981298
vt 0.833142 0.961417
vt 0.806493 0.981298
vt 0.806493 0.961417
vt 0.779844 0.981298
vt 0.779844 0.961417
vt 0.753195 0.981298
vt 0.753195 0.961417
vn 1.0000 0.0000 0.0000
vn -1.0000 0.0000 0.0000
vn 0.8961 0.4439 -0.0000
vn -0.3668 0.9303 -0.0000
vn -0.3668 0.8595 0.3560
vn 0.8961 0.4102 0.1699
vn 0.8961 0.3139 0.3139
vn -0.3668 0.6578 0.6578
vn -0.3668 0.3560 0.8595
vn 0.8961 0.1699 0.4102
vn -0.3668 0.0000 0.9303
vn 0.8961 0.0000 0.4439
vn -0.3668 -0.3560 0.8595
vn 0.8961 -0.1699 0.4102
vn -0.3668 -0.6578 0.6578
vn 0.8961 -0.3139 0.3139
vn 0.8961 -0.4102 0.1699
vn -0.3668 -0.8595 0.3560
vn -0.3668 -0.9303 -0.0000
vn 0.8961 -0.4439 -0.0000
vn 0.8961 -0.4102 -0.1699
vn -0.3668 -0.8595 -0.3560
vn -0.3668 -0.6578 -0.6578
vn 0.8961 -0.3139 -0.3139
vn -0.3668 -0.3560 -0.8595
vn 0.8961 -0.1699 -0.4102
vn -0.3668 0.0000 -0.9303
vn 0.8961 0.0000 -0.4439
vn -0.3668 0.3560 -0.8595
vn 0.8961 0.1699 -0.4102
vn -0.3668 0.6578 -0.6578
vn 0.8961 0.3139 -0.3139
vn -0.3668 0.8595 -0.3560
vn 0.8961 0.4102 -0.1699
usemtl wagon
s off
f 52/58/15 54/59/15 57/60/15
f 50/61/15 52/58/15 57/60/15
f 48/62/15 50/61/15 57/60/15
f 46/63/15 48/62/15 57/60/15
f 44/64/15 46/63/15 57/60/15
f 42/65/15 44/64/15 57/60/15
f 40/66/15 42/65/15 57/60/15
f 38/67/15 40/66/15 57/60/15
f 36/68/15 38/67/15 57/60/15
f 34/69/15 36/68/15 57/60/15
f 32/70/15 34/69/15 57/60/15
f 30/71/15 32/70/15 57/60/15
f 28/72/15 30/71/15 57/60/15
f 26/73/15 28/72/15 57/60/15
f 56/74/15 26/73/15 57/60/15
f 54/59/15 56/74/15 57/60/15
f 25/75/16 58/76/16 55/77/16
f 55/77/16 58/76/16 53/78/16
f 53/78/16 58/76/16 51/79/16
f 51/79/16 58/76/16 49/80/16
f 49/80/16 58/76/16 47/81/16
f 47/81/16 58/76/16 45/82/16
f 45/82/16 58/76/16 43/83/16
f 41/84/16 43/83/16 58/76/16
f 41/84/16 58/76/16 39/85/16
f 39/85/16 58/76/16 37/86/16
f 37/86/16 58/76/16 35/87/16
f 35/87/16 58/76/16 33/88/16
f 33/88/16 58/76/16 31/89/16
f 31/89/16 58/76/16 29/90/16
f 29/90/16 58/76/16 27/91/16
f 27/91/16 58/76/16 25/75/16
s 1
f 56/92/17 25/93/18 55/94/19 26/95/20
f 28/96/21 26/95/20 55/94/19 53/97/22
f 51/98/23 30/99/24 28/96/21 53/97/22
f 51/98/23 49/100/25 32/101/26 30/99/24
f 47/102/27 34/103/28 32/101/26 49/100/25
f 34/103/28 47/102/27 45/104/29 36/105/30
f 38/106/31 36/105/30 45/104/29 43/107/32
f 41/108/33 40/109/34 38/106/31 43/107/32
f 42/110/35 40/111/34 41/112/33 39/113/36
f 37/114/37 44/115/38 42/110/35 39/113/36
f 44/115/38 37/114/37 35/116/39 46/117/40
f 35/116/39 33/118/41 48/119/42 46/117/40
f 33/118/41 31/120/43 50/121/44 48/119/42
f 31/120/43 29/122/45 52/123/46 50/121/44
f 29/122/45 27/124/47 54/125/48 52/123/46
f 27/124/47 25/93/18 56/92/17 54/125/48
o wheelFR_wheelMeshFR
v 0.272463 0.273912 -0.233420
v 0.302819 0.237742 -0.190976
v 0.272463 0.263359 -0.286475
v 0.302819 0.213699 -0.154993
v 0.272463 0.233306 -0.331453
v 0.302819 0.177717 -0.130951
v 0.272463 0.188328 -0.361507
v 0.302819 0.135272 -0.122508
v 0.272463 0.135272 -0.372060
v 0.302819 0.092828 -0.130951
v 0.272463 0.082217 -0.361507
v 0.302819 0.056846 -0.154993
v 0.272463 0.037239 -0.331453
v 0.302819 0.032803 -0.190976
v 0.272463 0.007186 -0.286475
v 0.302819 0.024360 -0.233420
v 0.272463 -0.003368 -0.233420
v 0.302819 0.032803 -0.275864
v 0.272463 0.007186 -0.180365
v 0.302819 0.056846 -0.311847
v 0.272463 0.037239 -0.135387
v 0.302819 0.092828 -0.335889
v 0.272463 0.082217 -0.105333
v 0.302819 0.135272 -0.344332
v 0.272463 0.135272 -0.094780
v 0.302819 0.177717 -0.335889
v 0.272463 0.188328 -0.105333
v 0.302819 0.213699 -0.311847
v 0.272463 0.233306 -0.135387
v 0.302819 0.237742 -0.275864
v 0.272463 0.263359 -0.180365
v 0.302819 0.246184 -0.233420
v 0.302819 0.135272 -0.233420
v 0.272463 0.135272 -0.233420
vt 0.923432 0.750094
vt 0.890811 0.750094
vt 0.907122 0.668095
vt 0.953571 0.737610
vt 0.976638 0.714543
vt 0.989121 0.684405
vt 0.989121 0.651784
vt 0.976638 0.621646
vt 0.953571 0.598579
vt 0.923432 0.586095
vt 0.890811 0.586095
vt 0.860673 0.598579
vt 0.837606 0.621646
vt 0.825122 0.651784
vt 0.825122 0.684405
vt 0.837606 0.714543
vt 0.860673 0.737610
vt 0.953584 0.923182
vt 0.906048 0.852039
vt 0.977191 0.899575
vt 0.989967 0.868731
vt 0.989967 0.835346
vt 0.977191 0.804502
vt 0.953584 0.780895
vt 0.922740 0.768119
vt 0.889355 0.768119
vt 0.858511 0.780895
vt 0.834904 0.804502
vt 0.822128 0.835346
vt 0.822128 0.868731
vt 0.834904 0.899575
vt 0.858511 0.923182
vt 0.889355 0.935958
vt 0.922740 0.935958
vt 0.709221 0.957502
vt 0.709221 0.980722
vt 0.678097 0.980722
vt 0.678097 0.957502
vt 0.646973 0.957502
vt 0.646973 0.980722
vt 0.615849 0.980722
vt 0.615849 0.957502
vt 0.584724 0.980722
vt 0.584724 0.957502
vt 0.553600 0.980722
vt 0.553600 0.957502
vt 0.522476 0.980722
vt 0.522476 0.957502
vt 0.491352 0.957502
vt 0.491352 0.980722
vt 0.460227 0.980722
vt 0.460227 0.957502
vt 0.927091 0.957502
vt 0.958215 0.957502
vt 0.958215 0.980722
vt 0.927091 0.980722
vt 0.895967 0.980722
vt 0.895967 0.957502
vt 0.864843 0.980722
vt 0.864843 0.957502
vt 0.833719 0.980722
vt 0.833719 0.957502
vt 0.802594 0.980722
vt 0.802594 0.957502
vt 0.771470 0.980722
vt 0.771470 0.957502
vt 0.740346 0.980722
vt 0.740346 0.957502
vn 1.0000 0.0000 0.0000
vn -1.0000 0.0000 0.0000
vn 0.8961 0.4439 0.0000
vn -0.3668 0.9303 0.0000
vn -0.3668 0.8595 0.3560
vn 0.8961 0.4102 0.1699
vn 0.8961 0.3139 0.3139
vn -0.3668 0.6578 0.6578
vn -0.3668 0.3560 0.8595
vn 0.8961 0.1699 0.4102
vn -0.3668 0.0000 0.9303
vn 0.8961 -0.0000 0.4439
vn -0.3668 -0.3560 0.8595
vn 0.8961 -0.1699 0.4102
vn -0.3668 -0.6578 0.6578
vn 0.8961 -0.3139 0.3139
vn 0.8961 -0.4102 0.1699
vn -0.3668 -0.8595 0.3560
vn -0.3668 -0.9303 -0.0000
vn 0.8961 -0.4439 -0.0000
vn 0.8961 -0.4102 -0.1699
vn -0.3668 -0.8595 -0.3560
vn -0.3668 -0.6578 -0.6578
vn 0.8961 -0.3139 -0.3139
vn -0.3668 -0.3560 -0.8595
vn 0.8961 -0.1699 -0.4102
vn -0.3668 0.0000 -0.9303
vn 0.8961 0.0000 -0.4439
vn -0.3668 0.3560 -0.8595
vn 0.8961 0.1699 -0.4102
vn -0.3668 0.6578 -0.6578
vn 0.8961 0.3139 -0.3139
vn -0.3668 0.8595 -0.3560
vn 0.8961 0.4102 -0.1699
usemtl wagon
s off
f 86/126/49 88/127/49 91/128/49
f 84/129/49 86/126/49 91/128/49
f 82/130/49 84/129/49 91/128/49
f 80/131/49 82/130/49 91/128/49
f 78/132/49 80/131/49 91/128/49
f 76/133/49 78/132/49 91/128/49
f 74/134/49 76/133/49 91/128/49
f 72/135/49 74/134/49 91/128/49
f 70/136/49 72/135/49 91/128/49
f 68/137/49 70/136/49 91/128/49
f 66/138/49 68/137/49 91/128/49
f 64/139/49 66/138/49 91/128/49
f 62/140/49 64/139/49 91/128/49
f 60/141/49 62/140/49 91/128/49
f 90/142/49 60/141/49 91/128/49
f 88/127/49 90/142/49 91/128/49
f 59/143/50 92/144/50 89/145/50
f 89/145/50 92/144/50 87/146/50
f 87/146/50 92/144/50 85/147/50
f 85/147/50 92/144/50 83/148/50
f 83/148/50 92/144/50 81/149/50
f 81/149/50 92/144/50 79/150/50
f 79/150/50 92/144/50 77/151/50
f 75/152/50 77/151/50 92/144/50
f 75/152/50 92/144/50 73/153/50
f 73/153/50 92/144/50 71/154/50
f 71/154/50 92/144/50 69/155/50
f 69/155/50 92/144/50 67/156/50
f 67/156/50 92/144/50 65/157/50
f 65/157/50 92/144/50 63/158/50
f 63/158/50 92/144/50 61/159/50
f 61/159/50 92/144/50 59/143/50
s 1
f 90/160/51 59/161/52 89/162/53 60/163/54
f 62/164/55 60/163/54 89/162/53 87/165/56
f 85/166/57 64/167/58 62/164/55 87/165/56
f 85/166/57 83/168/59 66/169/60 64/167/58
f 81/170/61 68/171/62 66/169/60 83/168/59
f 68/171/62 81/170/61 79/172/63 70/173/64
f 72/174/65 70/173/64 79/172/63 77/175/66
f 75/176/67 74/177/68 72/174/65 77/175/66
f 76/178/69 74/179/68 75/180/67 73/181/70
f 71/182/71 78/183/72 76/178/69 73/181/70
f 78/183/72 71/182/71 69/184/73 80/185/74
f 69/184/73 67/186/75 82/187/76 80/185/74
f 67/186/75 65/188/77 84/189/78 82/187/76
f 65/188/77 63/190/79 86/191/80 84/189/78
f 63/190/79 61/192/81 88/193/82 86/191/80
f 61/192/81 59/161/52 90/160/51 88/193/82
o wheelBL_wheelMeshBL
v -0.301087 0.246184 0.233420
v -0.270731 0.263359 0.286475
v -0.301087 0.237742 0.190976
v -0.270731 0.233306 0.331453
v -0.301087 0.213699 0.154993
v -0.270731 0.188328 0.361507
v -0.301087 0.177717 0.130951
v -0.270731 0.135272 0.372060
v -0.301087 0.135272 0.122508
v -0.270731 0.082217 0.361507
v -0.301087 0.092828 0.130951
v -0.270731 0.037239 0.331453
v -0.301087 0.056846 0.154993
v -0.270731 0.007186 0.286475
v -0.301087 0.032803 0.190976
v -0.270731 -0.003368 0.233420
v -0.301087 0.024360 0.233420
v -0.270731 0.007186 0.180365
v -0.301087 0.032803 0.275864
v -0.270731 0.037239 0.135387
v -0.301087 0.056846 0.311847
v -0.270731 0.082217 0.105333
v -0.301087 0.092828 0.335889
v -0.270731 0.135272 0.094780
v -0.301087 0.135272 0.344332
v -0.270731 0.188328 0.105333
v -0.301087 0.177717 0.335889
v -0.270731 0.233306 0.135387
v -0.301087 0.213699 0.311847
v -0.270731 0.263359 0.180365
v -0.301087 0.237742 0.275864
v -0.270731 0.273912 0.233420
v -0.270731 0.135272 0.233420
v -0.301087 0.135272 0.233420
vt 0.859026 0.738943
vt 0.835626 0.715543
vt 0.906145 0.668424
vt 0.889599 0.751607
vt 0.922691 0.751607
vt 0.953264 0.738943
vt 0.976663 0.715543
vt 0.989327 0.684970
vt 0.989327 0.651878
vt 0.976663 0.621305
vt 0.953264 0.597906
vt 0.922691 0.585242
vt 0.889599 0.585242
vt 0.859026 0.597906
vt 0.835626 0.621305
vt 0.822962 0.651878
vt 0.822963 0.684970
vt 0.836133 0.805088
vt 0.906511 0.852113
vt 0.823495 0.835600
vt 0.823495 0.868626
vt 0.836133 0.899138
vt 0.859486 0.922491
vt 0.889998 0.935129
vt 0.923024 0.935129
vt 0.953536 0.922491
vt 0.976889 0.899138
vt 0.989527 0.868626
vt 0.989527 0.835600
vt 0.976889 0.805088
vt 0.953536 0.781736
vt 0.923024 0.769097
vt 0.889998 0.769097
vt 0.859486 0.781736
vt 0.584007 0.946268
vt 0.584007 0.993732
vt 0.551537 0.993732
vt 0.551537 0.946268
vt 0.519068 0.946268
vt 0.519068 0.993732
vt 0.486599 0.993732
vt 0.486599 0.946268
vt 0.454130 0.993732
vt 0.454130 0.946268
vt 0.812404 0.994146
vt 0.812404 0.946682
vt 0.844873 0.946682
vt 0.844873 0.994146
vt 0.779935 0.994146
vt 0.779935 0.946682
vt 0.747465 0.946682
vt 0.747465 0.994146
vt 0.714996 0.994146
vt 0.714996 0.946682
vt 0.942198 0.946684
vt 0.974667 0.946684
vt 0.974667 0.994149
vt 0.942198 0.994149
vt 0.909728 0.994149
vt 0.909728 0.946684
vt 0.877259 0.994149
vt 0.877259 0.946684
vt 0.844790 0.994149
vt 0.844790 0.946684
vt 0.713884 0.993732
vt 0.681414 0.993732
vt 0.681414 0.946268
vt 0.713884 0.946268
vt 0.648945 0.993732
vt 0.648945 0.946268
vt 0.616476 0.993732
vt 0.616476 0.946268
vn 1.0000 0.0000 0.0000
vn -1.0000 0.0000 0.0000
vn 0.3668 0.9303 -0.0000
vn -0.8961 0.4439 -0.0000
vn -0.8961 0.4102 0.1699
vn 0.3668 0.8595 0.3560
vn 0.3668 0.6578 0.6578
vn -0.8961 0.3139 0.3139
vn -0.8961 0.1699 0.4102
vn 0.3668 0.3560 0.8595
vn -0.8961 0.0000 0.4439
vn 0.3668 0.0000 0.9303
vn -0.8961 -0.1699 0.4102
vn 0.3668 -0.3560 0.8595
vn -0.8961 -0.3139 0.3139
vn 0.3668 -0.6578 0.6578
vn 0.3668 -0.8595 0.3560
vn -0.8961 -0.4102 0.1699
vn -0.8961 -0.4439 0.0000
vn 0.3668 -0.9303 -0.0000
vn 0.3668 -0.8595 -0.3560
vn -0.8961 -0.4102 -0.1699
vn -0.8961 -0.3139 -0.3139
vn 0.3668 -0.6578 -0.6578
vn -0.8961 -0.1699 -0.4102
vn 0.3668 -0.3560 -0.8595
vn -0.8961 -0.0000 -0.4439
vn 0.3668 -0.0000 -0.9303
vn -0.8961 0.1699 -0.4102
vn 0.3668 0.3560 -0.8595
vn -0.8961 0.3139 -0.3139
vn 0.3668 0.6578 -0.6578
vn -0.8961 0.4102 -0.1699
vn 0.3668 0.8595 -0.3560
usemtl wagon
s off
f 120/194/83 122/195/83 125/196/83
f 118/197/83 120/194/83 125/196/83
f 116/198/83 118/197/83 125/196/83
f 114/199/83 116/198/83 125/196/83
f 112/200/83 114/199/83 125/196/83
f 110/201/83 112/200/83 125/196/83
f 108/202/83 110/201/83 125/196/83
f 106/203/83 108/202/83 125/196/83
f 104/204/83 106/203/83 125/196/83
f 102/205/83 104/204/83 125/196/83
f 100/206/83 102/205/83 125/196/83
f 98/207/83 100/206/83 125/196/83
f 96/208/83 98/207/83 125/196/83
f 94/209/83 96/208/83 125/196/83
f 124/210/83 94/209/83 125/196/83
f 122/195/83 124/210/83 125/196/83
f 93/211/84 126/212/84 123/213/84
f 123/213/84 126/212/84 121/214/84
f 121/214/84 126/212/84 119/215/84
f 119/215/84 126/212/84 117/216/84
f 117/216/84 126/212/84 115/217/84
f 115/217/84 126/212/84 113/218/84
f 113/218/84 126/212/84 111/219/84
f 109/220/84 111/219/84 126/212/84
f 109/220/84 126/212/84 107/221/84
f 107/221/84 126/212/84 105/222/84
f 105/222/84 126/212/84 103/223/84
f 103/223/84 126/212/84 101/224/84
f 101/224/84 126/212/84 99/225/84
f 99/225/84 126/212/84 97/226/84
f 97/226/84 126/212/84 95/227/84
f 95/227/84 126/212/84 93/211/84
s 1
f 124/228/85 93/229/86 123/230/87 94/231/88
f 96/232/89 94/231/88 123/230/87 121/233/90
f 119/234/91 98/235/92 96/232/89 121/233/90
f 119/234/91 117/236/93 100/237/94 98/235/92
f 115/238/95 102/239/96 100/240/94 117/241/93
f 102/239/96 115/238/95 113/242/97 104/243/98
f 106/244/99 104/243/98 113/242/97 111/245/100
f 109/246/101 108/247/102 106/244/99 111/245/100
f 110/248/103 108/249/102 109/250/101 107/251/104
f 105/252/105 112/253/106 110/248/103 107/251/104
f 112/253/106 105/252/105 103/254/107 114/255/108
f 103/254/107 101/256/109 116/257/110 114/255/108
f 101/258/109 99/259/111 118/260/112 116/261/110
f 99/259/111 97/262/113 120/263/114 118/260/112
f 97/262/113 95/264/115 122/265/116 120/263/114
f 95/264/115 93/229/86 124/228/85 122/265/116
o wheelFL_wheelMeshFL
v -0.302722 0.246184 -0.233420
v -0.272365 0.263359 -0.180365
v -0.302722 0.237742 -0.275864
v -0.272365 0.233306 -0.135387
v -0.302722 0.213699 -0.311847
v -0.272365 0.188328 -0.105333
v -0.302722 0.177717 -0.335889
v -0.272365 0.135272 -0.094780
v -0.302722 0.135272 -0.344332
v -0.272365 0.082217 -0.105333
v -0.302722 0.092828 -0.335889
v -0.272365 0.037239 -0.135387
v -0.302722 0.056846 -0.311847
v -0.272365 0.007186 -0.180365
v -0.302722 0.032803 -0.275864
v -0.272365 -0.003368 -0.233420
v -0.302722 0.024360 -0.233420
v -0.272365 0.007186 -0.286475
v -0.302722 0.032803 -0.190976
v -0.272365 0.037239 -0.331453
v -0.302722 0.056846 -0.154993
v -0.272365 0.082217 -0.361507
v -0.302722 0.092828 -0.130951
v -0.272365 0.135272 -0.372060
v -0.302722 0.135272 -0.122508
v -0.272365 0.188328 -0.361507
v -0.302722 0.177717 -0.130951
v -0.272365 0.233306 -0.331453
v -0.302722 0.213699 -0.154993
v -0.272365 0.263359 -0.286475
v -0.302722 0.237742 -0.190976
v -0.272365 0.273912 -0.233420
v -0.272365 0.135272 -0.233420
v -0.302722 0.135272 -0.233420
vt 0.990978 0.651138
vt 0.990978 0.685015
vt 0.905822 0.668077
vt 0.978014 0.619840
vt 0.954059 0.595885
vt 0.922760 0.582920
vt 0.888883 0.582920
vt 0.857584 0.595885
vt 0.833629 0.619840
vt 0.820665 0.651138
vt 0.820665 0.685015
vt 0.833629 0.716314
vt 0.857584 0.740269
vt 0.888883 0.753233
vt 0.922760 0.753233
vt 0.954059 0.740269
vt 0.978014 0.716314
vt 0.823555 0.835026
vt 0.906437 0.851512
vt 0.823555 0.867998
vt 0.836173 0.898461
vt 0.859488 0.921776
vt 0.889951 0.934394
vt 0.922923 0.934394
vt 0.953385 0.921776
vt 0.976700 0.898461
vt 0.989318 0.867998
vt 0.989318 0.835026
vt 0.976700 0.804564
vt 0.953385 0.781249
vt 0.922923 0.768631
vt 0.889951 0.768631
vt 0.859488 0.781249
vt 0.836173 0.804564
vt 0.718943 0.983906
vt 0.718943 0.960222
vt 0.750689 0.960222
vt 0.750689 0.983906
vt 0.782435 0.983906
vt 0.782435 0.960222
vt 0.814181 0.960222
vt 0.814181 0.983906
vt 0.845927 0.960222
vt 0.845927 0.983906
vt 0.877673 0.960222
vt 0.877673 0.983906
vt 0.909419 0.960222
vt 0.909419 0.983906
vt 0.941165 0.983906
vt 0.941165 0.960222
vt 0.972911 0.960222
vt 0.972911 0.983906
vt 0.496721 0.983906
vt 0.464975 0.983906
vt 0.464975 0.960222
vt 0.496721 0.960222
vt 0.528467 0.960222
vt 0.528467 0.983906
vt 0.560213 0.960222
vt 0.560213 0.983906
vt 0.591959 0.960222
vt 0.591959 0.983906
vt 0.623705 0.960222
vt 0.623705 0.983906
vt 0.655451 0.960222
vt 0.655451 0.983906
vt 0.687197 0.960222
vt 0.687197 0.983906
vn 1.0000 0.0000 0.0000
vn -1.0000 0.0000 0.0000
vn 0.3668 0.9303 0.0000
vn -0.8961 0.4439 0.0000
vn -0.8961 0.4102 0.1699
vn 0.3668 0.8595 0.3560
vn 0.3668 0.6578 0.6578
vn -0.8961 0.3139 0.3139
vn -0.8961 0.1699 0.4102
vn 0.3668 0.3560 0.8595
vn -0.8961 -0.0000 0.4439
vn 0.3668 -0.0000 0.9303
vn -0.8961 -0.1699 0.4102
vn 0.3668 -0.3560 0.8595
vn -0.8961 -0.3139 0.3139
vn 0.3668 -0.6578 0.6578
vn 0.3668 -0.8595 0.3560
vn -0.8961 -0.4102 0.1699
vn -0.8961 -0.4439 0.0000
vn 0.3668 -0.9303 -0.0000
vn 0.3668 -0.8595 -0.3560
vn -0.8961 -0.4102 -0.1699
vn -0.8961 -0.3139 -0.3139
vn 0.3668 -0.6578 -0.6578
vn -0.8961 -0.1699 -0.4102
vn 0.3668 -0.3560 -0.8595
vn -0.8961 0.0000 -0.4439
vn 0.3668 -0.0000 -0.9303
vn -0.8961 0.1699 -0.4102
vn 0.3668 0.3560 -0.8595
vn -0.8961 0.3139 -0.3139
vn 0.3668 0.6578 -0.6578
vn -0.8961 0.4102 -0.1699
vn 0.3668 0.8595 -0.3560
usemtl wagon
s off
f 154/266/117 156/267/117 159/268/117
f 152/269/117 154/266/117 159/268/117
f 150/270/117 152/269/117 159/268/117
f 148/271/117 150/270/117 159/268/117
f 146/272/117 148/271/117 159/268/117
f 144/273/117 146/272/117 159/268/117
f 142/274/117 144/273/117 159/268/117
f 140/275/117 142/274/117 159/268/117
f 138/276/117 140/275/117 159/268/117
f 136/277/117 138/276/117 159/268/117
f 134/278/117 136/277/117 159/268/117
f 132/279/117 134/278/117 159/268/117
f 130/280/117 132/279/117 159/268/117
f 128/281/117 130/280/117 159/268/117
f 158/282/117 128/281/117 159/268/117
f 156/267/117 158/282/117 159/268/117
f 127/283/118 160/284/118 157/285/118
f 157/285/118 160/284/118 155/286/118
f 155/286/118 160/284/118 153/287/118
f 153/287/118 160/284/118 151/288/118
f 151/288/118 160/284/118 149/289/118
f 149/289/118 160/284/118 147/290/118
f 147/290/118 160/284/118 145/291/118
f 143/292/118 145/291/118 160/284/118
f 143/292/118 160/284/118 141/293/118
f 141/293/118 160/284/118 139/294/118
f 139/294/118 160/284/118 137/295/118
f 137/295/118 160/284/118 135/296/118
f 135/296/118 160/284/118 133/297/118
f 133/297/118 160/284/118 131/298/118
f 131/298/118 160/284/118 129/299/118
f 129/299/118 160/284/118 127/283/118
s 1
f 158/300/119 127/301/120 157/302/121 128/303/122
f 130/304/123 128/303/122 157/302/121 155/305/124
f 153/306/125 132/307/126 130/304/123 155/305/124
f 153/306/125 151/308/127 134/309/128 132/307/126
f 149/310/129 136/311/130 134/309/128 151/308/127
f 136/311/130 149/310/129 147/312/131 138/313/132
f 140/314/133 138/313/132 147/312/131 145/315/134
f 143/316/135 142/317/136 140/314/133 145/315/134
f 144/318/137 142/319/136 143/320/135 141/321/138
f 139/322/139 146/323/140 144/318/137 141/321/138
f 146/323/140 139/322/139 137/324/141 148/325/142
f 137/324/141 135/326/143 150/327/144 148/325/142
f 135/326/143 133/328/145 152/329/146 150/327/144
f 133/328/145 131/330/147 154/331/148 152/329/146
f 131/330/147 129/332/149 156/333/150 154/331/148
f 129/332/149 127/301/120 158/300/119 156/333/150
